<svg height="512pt" viewBox="-43 0 512 512" width="512pt" xmlns="http://www.w3.org/2000/svg" xmlns:xlink="http://www.w3.org/1999/xlink"><linearGradient id="a"><stop offset="0" stop-color="#662d91"/><stop offset=".437" stop-color="#3873b3"/><stop offset="1" stop-color="#00c9dd"/></linearGradient><linearGradient id="b" gradientTransform="matrix(1.02759 0 0 -1.02759 -42.666581 509.05955)" gradientUnits="userSpaceOnUse" x1="33.2169" x2="447.5229" xlink:href="#a" y1="391.5887" y2="-22.7173"/><linearGradient id="c" gradientTransform="matrix(1.02759 0 0 -1.02759 -42.666581 509.05955)" gradientUnits="userSpaceOnUse" x1="47.7493" x2="462.0553" xlink:href="#a" y1="406.1212" y2="-8.1849"/><path d="m8.53125 512h409.601562c4.714844 0 8.535157-3.820312 8.535157-8.53125v-179.203125c0-4.710937-3.820313-8.53125-8.535157-8.53125h-51.199218v-145.066406c0-4.714844-3.820313-8.535157-8.53125-8.535157h-26.035156c-4.492188-57.726562-52.597657-102.308593-110.5-102.398437v-8.535156h51.199218c4.714844 0 8.535156-3.820313 8.535156-8.53125v-34.136719c0-4.710938-3.820312-8.53125-8.535156-8.53125h-68.265625v59.734375c-57.902343.09375-106.007812 44.671875-110.496093 102.398437h-26.035157c-4.714843 0-8.535156 3.820313-8.535156 8.535157v145.066406h-51.203125c-4.710938 0-8.53125 3.820313-8.53125 8.53125v179.203125c0 4.710938 3.820312 8.53125 8.53125 8.53125zm213.335938-494.933594h42.667968v17.066406h-42.667968zm-170.667969 477.867188v-110.933594c0-4.710938 3.820312-8.53125 8.535156-8.53125 4.710937 0 8.53125 3.820312 8.53125 8.53125v110.933594zm93.867187 0v-85.332032c0-4.714843 3.820313-8.535156 8.535156-8.535156 4.710938 0 8.53125 3.820313 8.53125 8.535156v85.332032zm59.734375 0v-85.332032c0-4.714843 3.820313-8.535156 8.53125-8.535156 4.714844 0 8.535157 3.820313 8.535157 8.535156v85.332032zm59.734375 0v-85.332032c0-4.714843 3.820313-8.535156 8.53125-8.535156 4.710938 0 8.535156 3.820313 8.535156 8.535156v85.332032zm34.132813 0v-85.332032c0-14.140624-11.460938-25.601562-25.601563-25.601562-14.136718 0-25.601562 11.460938-25.601562 25.601562v85.332032h-8.53125v-85.332032c0-14.140624-11.460938-25.601562-25.601563-25.601562-14.136719 0-25.597656 11.460938-25.597656 25.601562v85.332032h-8.535156v-85.332032c0-14.140624-11.460938-25.601562-25.601563-25.601562-14.136718 0-25.597656 11.460938-25.597656 25.601562v85.332032h-8.535156v-162.132813h187.734375v162.132813zm-187.734375-186.617188v-77.917968c0-9.425782 7.640625-17.066407 17.066406-17.066407s17.066406 7.644531 17.066406 17.066407v55.171874zm85.332031-56.25v-21.667968c0-9.425782 7.640625-17.066407 17.066406-17.066407s17.066407 7.644531 17.066407 17.066407v21.660156l-12.355469-8.160156c-2.847657-1.875-6.539063-1.875-9.386719 0zm17.066406 9.183594 20.890625 13.789062 61.636719 40.695313h-165.042969zm68.269531 24.320312v-55.171874c0-9.425782 7.640626-17.066407 17.066407-17.066407s17.066406 7.644531 17.066406 17.066407v77.917968zm76.800782 209.363282v-110.933594c0-4.710938 3.820312-8.53125 8.53125-8.53125 4.714844 0 8.535156 3.820312 8.535156 8.53125v110.933594zm51.199218 0h-17.066406v-110.933594c0-14.136719-11.460937-25.601562-25.601562-25.601562-14.136719 0-25.601563 11.464843-25.601563 25.601562v110.933594h-17.066406v-162.132813h85.335937zm-204.800781-418.132813h17.066407c48.511718.058594 89.011718 37.027344 93.484374 85.332031h-204.035156c4.472656-48.304687 44.972656-85.273437 93.484375-85.332031zm-128 102.398438h273.066407v136.535156h-17.066407v-85.332031c0-18.851563-15.28125-34.132813-34.132812-34.132813-18.851563 0-34.132813 15.28125-34.132813 34.132813v44.203125l-17.066406-11.273438v-32.929687c0-18.851563-15.285156-34.132813-34.136719-34.132813-18.847656 0-34.132812 15.28125-34.132812 34.132813v32.9375l-17.066407 11.265625v-44.203125c0-18.851563-15.28125-34.132813-34.132812-34.132813s-34.132812 15.28125-34.132812 34.132813v85.332031h-17.066407zm-59.734375 153.601562h85.335938v162.132813h-17.066406v-110.933594c0-14.136719-11.464844-25.601562-25.601563-25.601562-14.140625 0-25.601563 11.464843-25.601563 25.601562v110.933594h-17.066406zm0 0" fill="url(#b)"/><path d="m204.800781 290.132812h17.066407v17.066407h-17.066407zm0 0" fill="url(#c)"/></svg>