<?xml version="1.0" encoding="iso-8859-1"?>
<!-- Generator: Adobe Illustrator 22.1.0, SVG Export Plug-In . SVG Version: 6.00 Build 0)  -->
<svg xmlns="http://www.w3.org/2000/svg" xmlns:xlink="http://www.w3.org/1999/xlink" version="1.1" id="Layer_1_1_" x="0px" y="0px" viewBox="0 0 64 64" style="enable-background:new 0 0 64 64;" xml:space="preserve" width="512" height="512">
<linearGradient id="SVGID_1_" gradientUnits="userSpaceOnUse" x1="32" y1="63" x2="32" y2="1">
	<stop offset="0" style="stop-color:#9F2FFF"/>
	<stop offset="1" style="stop-color:#0BB1D3"/>
</linearGradient>
<path style="fill:url(#SVGID_1_);" d="M58,15h-1.051C56.431,7.195,49.934,1,42,1c-7.279,0-13.458,5.278-14.745,12.286l-1.065-0.837  c-2.379-1.869-5.999-1.869-8.38,0L14.563,15H6c-2.757,0-5,2.243-5,5v32c0,2.757,2.243,5,5,5h13v4h-4v2h34v-2h-4v-4h13  c2.757,0,5-2.243,5-5V20C63,17.243,60.757,15,58,15z M25,43h-6V33h6V43z M17,31v12h-6V27h22v16h-6V31H17z M37.847,21.607  l-2.049-1.609L42,17.104l11.312,5.279C51.078,26.327,46.848,29,42,29c-2.471,0-4.845-0.695-6.915-2h0.896  C37.646,27,39,25.646,39,23.981C39,23.049,38.579,22.184,37.847,21.607z M55,16c0,1.609-0.308,3.145-0.845,4.569L43,15.363V3.051  C49.701,3.565,55,9.17,55,16z M41,3.049v12.315l-6.965,3.25l-4.961-3.897C29.692,8.453,34.774,3.53,41,3.049z M19.045,14.021  C19.885,13.363,20.934,13,22,13s2.115,0.363,2.954,1.021L36.61,23.18c0.248,0.194,0.39,0.486,0.39,0.802  C37,24.543,36.543,25,35.981,25H8.019C7.457,25,7,24.543,7,23.981c0-0.315,0.142-0.607,0.39-0.802L19.045,14.021z M6,17h6.018  l-5.864,4.607C5.421,22.184,5,23.049,5,23.981C5,25.646,6.354,27,8.019,27H9v18h26V29.259C37.147,30.396,39.532,31,42,31  c7.934,0,14.431-6.195,14.949-14H58c1.654,0,3,1.346,3,3v27H46.764l-4,2H3V20C3,18.346,4.346,17,6,17z M43,61H21v-4h22V61z M58,55H6  c-1.654,0-3-1.346-3-3v-1h40.236l4-2H61v3C61,53.654,59.654,55,58,55z M53,51h2v2h-2V51z M57,51h2v2h-2V51z M49,51h2v2h-2V51z   M59,45H37v-2h2v-8h2v8h2v-4h2v4h2v-6h2v6h2v-8h2v8h2v-4h2v4h2V45z"/>
</svg>
