<?xml version="1.0" encoding="iso-8859-1"?>
<!-- Generator: Adobe Illustrator 22.1.0, SVG Export Plug-In . SVG Version: 6.00 Build 0)  -->
<svg xmlns="http://www.w3.org/2000/svg" xmlns:xlink="http://www.w3.org/1999/xlink" version="1.1" id="Layer_1_1_" x="0px" y="0px" viewBox="0 0 64 64" style="enable-background:new 0 0 64 64;" xml:space="preserve" width="512" height="512">
<linearGradient id="SVGID_1_" gradientUnits="userSpaceOnUse" x1="32" y1="63" x2="32" y2="1">
	<stop offset="0" style="stop-color:#9F2FFF"/>
	<stop offset="1" style="stop-color:#0BB1D3"/>
</linearGradient>
<path style="fill:url(#SVGID_1_);" d="M59,19h-4.122c-0.241-1.223-0.852-2.947-1.878-3.665V9c1.103,0,2-0.897,2-2V3  c0-1.103-0.897-2-2-2H11C9.897,1,9,1.897,9,3v4c0,1.103,0.897,2,2,2h4v7.721l0.684,0.228c0.123,0.041,1.634,0.533,4.312,1.024  c-0.331,0.33-0.643,0.675-0.944,1.027H5v6H1v31c0,1.654,1.346,3,3,3h23.101c0.464,2.279,2.485,4,4.899,4s4.435-1.721,4.899-4H60  c1.654,0,3-1.346,3-3V25h-4V19z M53,20c0,0.551-0.449,1-1,1s-1-0.449-1-1c0-0.826,0.571-2.436,1-2.916  C52.429,17.564,53,19.174,53,20z M11,3h42l0.001,4H11V3z M17,9h30v6.25C45.177,15.748,39.809,17,32,17s-13.177-1.252-15-1.75V9z   M46.915,31.621c-0.379,3.626-2.087,6.875-4.613,9.267l-0.474-0.474C40.649,39.235,40,37.667,40,36s0.649-3.235,1.828-4.414  l1.105-1.105C43.621,29.793,44,28.879,44,27.906v-0.845c0-1.673-1.134-3.125-2.757-3.532C40.511,23.347,40,22.692,40,21.938v-3.378  c0.511-0.058,1.005-0.118,1.472-0.182C45.416,21.593,47.45,26.508,46.915,31.621z M21.997,41.177  c-2.418-2.166-4.044-5.046-4.685-8.177h1.754c3.411,0,6.729-0.681,9.864-2.025c1.192-0.511,2.579-0.344,3.615,0.434  C33.456,32.092,34,33.18,34,34.319v1.006c0,3.164,0.595,6.25,1.761,9.192c-0.668,0.172-1.349,0.311-2.049,0.388  C29.381,45.388,25.216,44.061,21.997,41.177z M11,29v-4h4.769c-0.394,1.286-0.633,2.625-0.713,4H11z M37.666,43.89  C36.564,41.15,36,38.274,36,35.325v-1.006c0-1.765-0.843-3.451-2.255-4.51c-1.608-1.206-3.754-1.464-5.604-0.672  C25.258,30.373,22.204,31,19.065,31h-2.012C17.031,30.667,17,30.336,17,30c0-0.55,0.035-1.093,0.093-1.631  C18.076,28.774,19.125,29,20.197,29h2c1.463,0,2.822-0.727,3.635-1.945c0.44-0.66,1.177-1.055,1.971-1.055  c4.149,0,7.579-3.101,8.116-7.105c0.724-0.038,1.415-0.087,2.081-0.142v3.185c0,1.673,1.134,3.125,2.757,3.532  C41.489,25.653,42,26.308,42,27.062v0.845c0,0.432-0.175,0.854-0.48,1.16l-1.105,1.105C38.857,31.729,38,33.798,38,36  s0.857,4.271,2.414,5.828l0.349,0.349C39.809,42.866,38.768,43.439,37.666,43.89z M32,19c0.646,0,1.273-0.009,1.885-0.024  C33.335,21.834,30.818,24,27.803,24c-1.463,0-2.822,0.727-3.635,1.945C23.728,26.605,22.991,27,22.197,27h-2  c-0.955,0-1.888-0.232-2.74-0.656c0.774-3.109,2.534-5.888,5.085-7.965C25.077,18.727,28.258,19,32,19z M7,21h10.577  c-0.401,0.641-0.747,1.312-1.058,2H9v8h6.053c0.265,4.459,2.261,8.668,5.609,11.667c2.913,2.61,6.509,4.076,10.338,4.291V53H7V21z   M61,27v29c0,0.551-0.449,1-1,1H35v1c0,1.654-1.346,3-3,3s-3-1.346-3-3v-1H4c-0.551,0-1-0.449-1-1V27h2v28h54V29h-2v24H33v-6.055  c0.311-0.018,0.619-0.017,0.932-0.052c7.854-0.868,14.15-7.204,14.973-15.065c0.545-5.211-1.264-10.247-4.89-13.858  c2.672-0.491,4.179-0.981,4.302-1.022L49,16.721V9h2v6.335c-1.368,0.956-2,3.709-2,4.665c0,1.654,1.346,3,3,3  c1.302,0,2.402-0.839,2.816-2H57v6H61z M22,35h2v2h-2V35z M31,35h-2v-2h2V35z M30,40h2v2h-2V40z M21,45v2H9v-2H21z M15,43H9v-2h6V43  z M13,39H9v-2h4V39z M13,35H9v-2h4V35z M43,45h12v2H43V45z M49,41h6v2h-6V41z M51,37h4v2h-4V37z M51,33h4v2h-4V33z M51,29h4v2h-4V29  z M51,25h4v2h-4V25z"/>
</svg>
